<mxfile host="Electron" modified="2023-11-28T19:10:09.181Z" agent="Mozilla/5.0 (Macintosh; Intel Mac OS X 10_15_7) AppleWebKit/537.36 (KHTML, like Gecko) draw.io/22.1.2 Chrome/114.0.5735.289 Electron/25.9.4 Safari/537.36" etag="zEcItpwTW2GxJIjCHLbk" version="22.1.2" type="device" pages="5">
  <diagram id="C5RBs43oDa-KdzZeNtuy" name="DataManager">
    <mxGraphModel dx="1434" dy="854" grid="1" gridSize="10" guides="1" tooltips="1" connect="1" arrows="1" fold="1" page="1" pageScale="1" pageWidth="827" pageHeight="1169" math="0" shadow="0">
      <root>
        <mxCell id="WIyWlLk6GJQsqaUBKTNV-0" />
        <mxCell id="WIyWlLk6GJQsqaUBKTNV-1" parent="WIyWlLk6GJQsqaUBKTNV-0" />
        <mxCell id="qlMDPtqzU5xvS6RNfqIj-0" value="&lt;p style=&quot;margin:0px;margin-top:4px;text-align:center;&quot;&gt;&lt;i&gt;&amp;lt;&amp;lt;Interface&amp;gt;&amp;gt;&lt;/i&gt;&lt;br&gt;&lt;b&gt;DataManager&amp;lt;T&amp;gt;&lt;/b&gt;&lt;/p&gt;&lt;hr size=&quot;1&quot;&gt;&lt;p style=&quot;margin:0px;margin-left:4px;&quot;&gt;&lt;br&gt;&lt;/p&gt;&lt;hr size=&quot;1&quot;&gt;&lt;p style=&quot;margin:0px;margin-left:4px;&quot;&gt;+ add(value: T): Promise&amp;lt;T&amp;gt;&lt;br&gt;+ allValues(): Promise&amp;lt;T[]&amp;gt;&lt;/p&gt;&lt;p style=&quot;margin:0px;margin-left:4px;&quot;&gt;+ oneValue(id: string): Promise&amp;lt;T&amp;gt;&lt;/p&gt;&lt;p style=&quot;margin:0px;margin-left:4px;&quot;&gt;+ remove(value: T): Promise&amp;lt;T&amp;gt;&lt;/p&gt;&lt;p style=&quot;margin:0px;margin-left:4px;&quot;&gt;+ removeSet(values: T[]): Promise&amp;lt;T[]&amp;gt;&lt;/p&gt;&lt;p style=&quot;margin:0px;margin-left:4px;&quot;&gt;+ update(value: T): Promise&amp;lt;T&amp;gt;&lt;/p&gt;&lt;p style=&quot;margin:0px;margin-left:4px;&quot;&gt;+ updateSet(values: T[]): Promise&amp;lt;T[]&amp;gt;&lt;/p&gt;" style="verticalAlign=top;align=left;overflow=fill;fontSize=12;fontFamily=Helvetica;html=1;whiteSpace=wrap;" vertex="1" parent="WIyWlLk6GJQsqaUBKTNV-1">
          <mxGeometry x="300" y="40" width="220" height="190" as="geometry" />
        </mxCell>
        <mxCell id="qlMDPtqzU5xvS6RNfqIj-1" value="&lt;p style=&quot;margin:0px;margin-top:4px;text-align:center;&quot;&gt;&lt;b&gt;Repository&amp;lt;T&amp;gt;&lt;/b&gt;&lt;/p&gt;&lt;hr size=&quot;1&quot;&gt;&lt;p style=&quot;margin:0px;margin-left:4px;&quot;&gt;&lt;br&gt;&lt;/p&gt;&lt;hr size=&quot;1&quot;&gt;&lt;p style=&quot;margin:0px;margin-left:4px;&quot;&gt;# toModel(value: any): T&lt;/p&gt;&lt;p style=&quot;border-color: var(--border-color); margin: 0px 0px 0px 4px;&quot;&gt;+ add(value: T): Promise&amp;lt;T&amp;gt;&lt;br style=&quot;border-color: var(--border-color);&quot;&gt;+ allValues(): Promise&amp;lt;T[]&amp;gt;&lt;/p&gt;&lt;p style=&quot;border-color: var(--border-color); margin: 0px 0px 0px 4px;&quot;&gt;+ oneValue(id: string): Promise&amp;lt;T&amp;gt;&lt;/p&gt;&lt;p style=&quot;border-color: var(--border-color); margin: 0px 0px 0px 4px;&quot;&gt;+ remove(value: T): Promise&amp;lt;T&amp;gt;&lt;/p&gt;&lt;p style=&quot;border-color: var(--border-color); margin: 0px 0px 0px 4px;&quot;&gt;+ removeSet(values: T[]): Promise&amp;lt;T[]&amp;gt;&lt;/p&gt;&lt;p style=&quot;border-color: var(--border-color); margin: 0px 0px 0px 4px;&quot;&gt;+ update(value: T): Promise&amp;lt;T&amp;gt;&lt;/p&gt;&lt;p style=&quot;border-color: var(--border-color); margin: 0px 0px 0px 4px;&quot;&gt;+ updateSet(values: T[]): Promise&amp;lt;T[]&amp;gt;&lt;/p&gt;&lt;p style=&quot;border-color: var(--border-color); margin: 0px 0px 0px 4px;&quot;&gt;+ reset(): void&lt;/p&gt;" style="verticalAlign=top;align=left;overflow=fill;fontSize=12;fontFamily=Helvetica;html=1;whiteSpace=wrap;" vertex="1" parent="WIyWlLk6GJQsqaUBKTNV-1">
          <mxGeometry x="300" y="300" width="220" height="200" as="geometry" />
        </mxCell>
        <mxCell id="qlMDPtqzU5xvS6RNfqIj-2" value="" style="endArrow=block;dashed=1;endFill=0;endSize=12;html=1;rounded=0;exitX=0.5;exitY=0;exitDx=0;exitDy=0;entryX=0.5;entryY=1;entryDx=0;entryDy=0;" edge="1" parent="WIyWlLk6GJQsqaUBKTNV-1" source="qlMDPtqzU5xvS6RNfqIj-1" target="qlMDPtqzU5xvS6RNfqIj-0">
          <mxGeometry width="160" relative="1" as="geometry">
            <mxPoint x="480" y="460" as="sourcePoint" />
            <mxPoint x="640" y="460" as="targetPoint" />
          </mxGeometry>
        </mxCell>
        <mxCell id="qlMDPtqzU5xvS6RNfqIj-3" style="edgeStyle=orthogonalEdgeStyle;rounded=0;orthogonalLoop=1;jettySize=auto;html=1;exitX=0.5;exitY=1;exitDx=0;exitDy=0;" edge="1" parent="WIyWlLk6GJQsqaUBKTNV-1" source="qlMDPtqzU5xvS6RNfqIj-1" target="qlMDPtqzU5xvS6RNfqIj-1">
          <mxGeometry relative="1" as="geometry" />
        </mxCell>
        <mxCell id="qlMDPtqzU5xvS6RNfqIj-4" value="&lt;p style=&quot;margin:0px;margin-top:4px;text-align:center;&quot;&gt;&lt;b&gt;StudentInformationLookupRepository&lt;/b&gt;&lt;/p&gt;&lt;hr size=&quot;1&quot;&gt;&lt;p style=&quot;margin:0px;margin-left:4px;&quot;&gt;&lt;br&gt;&lt;/p&gt;&lt;hr size=&quot;1&quot;&gt;&lt;p style=&quot;margin:0px;margin-left:4px;&quot;&gt;# toModel(value: any): T&lt;/p&gt;" style="verticalAlign=top;align=left;overflow=fill;fontSize=12;fontFamily=Helvetica;html=1;whiteSpace=wrap;" vertex="1" parent="WIyWlLk6GJQsqaUBKTNV-1">
          <mxGeometry x="40" y="600" width="260" height="90" as="geometry" />
        </mxCell>
        <mxCell id="qlMDPtqzU5xvS6RNfqIj-5" value="Extends" style="endArrow=block;endSize=16;endFill=0;html=1;rounded=0;exitX=0.5;exitY=0;exitDx=0;exitDy=0;entryX=0.5;entryY=1;entryDx=0;entryDy=0;" edge="1" parent="WIyWlLk6GJQsqaUBKTNV-1" source="qlMDPtqzU5xvS6RNfqIj-4" target="qlMDPtqzU5xvS6RNfqIj-1">
          <mxGeometry width="160" relative="1" as="geometry">
            <mxPoint x="490" y="580" as="sourcePoint" />
            <mxPoint x="650" y="580" as="targetPoint" />
          </mxGeometry>
        </mxCell>
        <mxCell id="qlMDPtqzU5xvS6RNfqIj-6" value="HttpClient" style="html=1;whiteSpace=wrap;" vertex="1" parent="WIyWlLk6GJQsqaUBKTNV-1">
          <mxGeometry x="440" y="600" width="110" height="50" as="geometry" />
        </mxCell>
        <mxCell id="qlMDPtqzU5xvS6RNfqIj-7" value="StudentInfoURISupplier" style="html=1;whiteSpace=wrap;" vertex="1" parent="WIyWlLk6GJQsqaUBKTNV-1">
          <mxGeometry x="440" y="680" width="150" height="50" as="geometry" />
        </mxCell>
        <mxCell id="qlMDPtqzU5xvS6RNfqIj-10" value="Use" style="endArrow=open;endSize=12;dashed=1;html=1;rounded=0;exitX=1;exitY=0.5;exitDx=0;exitDy=0;entryX=0;entryY=0.5;entryDx=0;entryDy=0;" edge="1" parent="WIyWlLk6GJQsqaUBKTNV-1" source="qlMDPtqzU5xvS6RNfqIj-4" target="qlMDPtqzU5xvS6RNfqIj-6">
          <mxGeometry x="0.1708" y="15" width="160" relative="1" as="geometry">
            <mxPoint x="530" y="550" as="sourcePoint" />
            <mxPoint x="670" y="530" as="targetPoint" />
            <Array as="points">
              <mxPoint x="340" y="625" />
            </Array>
            <mxPoint as="offset" />
          </mxGeometry>
        </mxCell>
        <mxCell id="qlMDPtqzU5xvS6RNfqIj-13" value="Use" style="endArrow=open;endSize=12;dashed=1;html=1;rounded=0;entryX=0;entryY=0.5;entryDx=0;entryDy=0;" edge="1" parent="WIyWlLk6GJQsqaUBKTNV-1" target="qlMDPtqzU5xvS6RNfqIj-7">
          <mxGeometry x="0.3194" y="15" width="160" relative="1" as="geometry">
            <mxPoint x="300" y="640" as="sourcePoint" />
            <mxPoint x="410" y="760" as="targetPoint" />
            <Array as="points">
              <mxPoint x="340" y="705" />
            </Array>
            <mxPoint as="offset" />
          </mxGeometry>
        </mxCell>
      </root>
    </mxGraphModel>
  </diagram>
  <diagram id="9r8zIIZDCcczn-8UbLOV" name="Command">
    <mxGraphModel dx="1434" dy="854" grid="1" gridSize="10" guides="1" tooltips="1" connect="1" arrows="1" fold="1" page="1" pageScale="1" pageWidth="1100" pageHeight="850" math="0" shadow="0">
      <root>
        <mxCell id="0" />
        <mxCell id="1" parent="0" />
        <mxCell id="Pp5_mNrEerhu3dBY--eZ-1" value="&lt;p style=&quot;margin:0px;margin-top:4px;text-align:center;&quot;&gt;&lt;i&gt;&amp;lt;&amp;lt;Interface&amp;gt;&amp;gt;&lt;/i&gt;&lt;br&gt;&lt;b&gt;Executable&lt;/b&gt;&lt;/p&gt;&lt;hr size=&quot;1&quot;&gt;&lt;p style=&quot;margin:0px;margin-left:4px;&quot;&gt;&lt;br&gt;&lt;/p&gt;&lt;hr size=&quot;1&quot;&gt;&lt;p style=&quot;margin:0px;margin-left:4px;&quot;&gt;+ execute(): void&lt;/p&gt;" style="verticalAlign=top;align=left;overflow=fill;fontSize=12;fontFamily=Helvetica;html=1;whiteSpace=wrap;" vertex="1" parent="1">
          <mxGeometry x="440" y="40" width="190" height="100" as="geometry" />
        </mxCell>
        <mxCell id="Pp5_mNrEerhu3dBY--eZ-2" value="&lt;p style=&quot;margin:0px;margin-top:4px;text-align:center;&quot;&gt;&lt;b&gt;&lt;i&gt;Command&lt;/i&gt;&lt;/b&gt;&lt;/p&gt;&lt;hr size=&quot;1&quot;&gt;&lt;p style=&quot;margin:0px;margin-left:4px;&quot;&gt;&lt;br&gt;&lt;/p&gt;&lt;hr size=&quot;1&quot;&gt;&lt;p style=&quot;margin:0px;margin-left:4px;&quot;&gt;+ execute(): void&lt;/p&gt;&lt;p style=&quot;margin:0px;margin-left:4px;&quot;&gt;# doPreExecute(): void&lt;/p&gt;&lt;p style=&quot;margin:0px;margin-left:4px;&quot;&gt;# &lt;i&gt;doExecute(): void&lt;/i&gt;&lt;/p&gt;&lt;p style=&quot;margin:0px;margin-left:4px;&quot;&gt;# doPostExecute(): void&lt;/p&gt;" style="verticalAlign=top;align=left;overflow=fill;fontSize=12;fontFamily=Helvetica;html=1;whiteSpace=wrap;" vertex="1" parent="1">
          <mxGeometry x="455" y="190" width="160" height="130" as="geometry" />
        </mxCell>
        <mxCell id="Pp5_mNrEerhu3dBY--eZ-4" value="&lt;p style=&quot;margin:0px;margin-top:4px;text-align:center;&quot;&gt;&lt;b&gt;&lt;i&gt;EnableableCommand&lt;/i&gt;&lt;/b&gt;&lt;/p&gt;&lt;hr size=&quot;1&quot;&gt;&lt;p style=&quot;margin:0px;margin-left:4px;&quot;&gt;&lt;br&gt;&lt;/p&gt;&lt;hr size=&quot;1&quot;&gt;&lt;p style=&quot;margin:0px;margin-left:4px;&quot;&gt;+ isEnabled(): boolean&lt;/p&gt;&lt;p style=&quot;margin:0px;margin-left:4px;&quot;&gt;+ enabledIf(enableFunction: BooleanSupplier)&lt;/p&gt;" style="verticalAlign=top;align=left;overflow=fill;fontSize=12;fontFamily=Helvetica;html=1;whiteSpace=wrap;" vertex="1" parent="1">
          <mxGeometry x="407.5" y="380" width="255" height="100" as="geometry" />
        </mxCell>
        <mxCell id="Pp5_mNrEerhu3dBY--eZ-5" value="Extends" style="endArrow=block;endSize=16;endFill=0;html=1;rounded=0;exitX=0.5;exitY=0;exitDx=0;exitDy=0;entryX=0.5;entryY=1;entryDx=0;entryDy=0;" edge="1" parent="1" source="Pp5_mNrEerhu3dBY--eZ-4" target="Pp5_mNrEerhu3dBY--eZ-2">
          <mxGeometry width="160" relative="1" as="geometry">
            <mxPoint x="750" y="400" as="sourcePoint" />
            <mxPoint x="910" y="400" as="targetPoint" />
          </mxGeometry>
        </mxCell>
        <mxCell id="Pp5_mNrEerhu3dBY--eZ-6" value="" style="endArrow=block;dashed=1;endFill=0;endSize=12;html=1;rounded=0;exitX=0.5;exitY=0;exitDx=0;exitDy=0;entryX=0.5;entryY=1;entryDx=0;entryDy=0;" edge="1" parent="1" source="Pp5_mNrEerhu3dBY--eZ-2" target="Pp5_mNrEerhu3dBY--eZ-1">
          <mxGeometry width="160" relative="1" as="geometry">
            <mxPoint x="750" y="220" as="sourcePoint" />
            <mxPoint x="910" y="220" as="targetPoint" />
          </mxGeometry>
        </mxCell>
        <mxCell id="Pp5_mNrEerhu3dBY--eZ-8" value="&lt;p style=&quot;margin:0px;margin-top:4px;text-align:center;&quot;&gt;&lt;br&gt;&lt;b&gt;BooleanSupplier&lt;/b&gt;&lt;/p&gt;" style="verticalAlign=top;align=left;overflow=fill;fontSize=12;fontFamily=Helvetica;html=1;whiteSpace=wrap;" vertex="1" parent="1">
          <mxGeometry x="820" y="400" width="140" height="60" as="geometry" />
        </mxCell>
        <mxCell id="Pp5_mNrEerhu3dBY--eZ-9" value="enableFunctions" style="endArrow=open;html=1;endSize=12;startArrow=diamondThin;startSize=14;startFill=0;edgeStyle=orthogonalEdgeStyle;rounded=0;exitX=1;exitY=0.5;exitDx=0;exitDy=0;entryX=0;entryY=0.5;entryDx=0;entryDy=0;" edge="1" parent="1" source="Pp5_mNrEerhu3dBY--eZ-4" target="Pp5_mNrEerhu3dBY--eZ-8">
          <mxGeometry relative="1" as="geometry">
            <mxPoint x="710" y="540" as="sourcePoint" />
            <mxPoint x="870" y="540" as="targetPoint" />
          </mxGeometry>
        </mxCell>
        <mxCell id="Pp5_mNrEerhu3dBY--eZ-10" value="1" style="edgeLabel;resizable=0;html=1;align=left;verticalAlign=top;" connectable="0" vertex="1" parent="Pp5_mNrEerhu3dBY--eZ-9">
          <mxGeometry x="-1" relative="1" as="geometry">
            <mxPoint x="8" as="offset" />
          </mxGeometry>
        </mxCell>
        <mxCell id="Pp5_mNrEerhu3dBY--eZ-11" value="0..*" style="edgeLabel;resizable=0;html=1;align=right;verticalAlign=top;" connectable="0" vertex="1" parent="Pp5_mNrEerhu3dBY--eZ-9">
          <mxGeometry x="1" relative="1" as="geometry">
            <mxPoint x="-10" as="offset" />
          </mxGeometry>
        </mxCell>
        <mxCell id="Pp5_mNrEerhu3dBY--eZ-12" value="&lt;p style=&quot;margin:0px;margin-top:4px;text-align:center;&quot;&gt;&lt;b&gt;MenuCommand&lt;/b&gt;&lt;/p&gt;&lt;hr size=&quot;1&quot;&gt;&lt;p style=&quot;margin:0px;margin-left:4px;&quot;&gt;+ title: string&lt;/p&gt;&lt;p style=&quot;margin:0px;margin-left:4px;&quot;&gt;+ group: string&lt;/p&gt;&lt;p style=&quot;margin:0px;margin-left:4px;&quot;&gt;+ isAdminOnly: boolean&lt;/p&gt;&lt;hr size=&quot;1&quot;&gt;&lt;p style=&quot;margin:0px;margin-left:4px;&quot;&gt;&lt;br&gt;&lt;/p&gt;" style="verticalAlign=top;align=left;overflow=fill;fontSize=12;fontFamily=Helvetica;html=1;whiteSpace=wrap;" vertex="1" parent="1">
          <mxGeometry x="455" y="540" width="160" height="110" as="geometry" />
        </mxCell>
        <mxCell id="Pp5_mNrEerhu3dBY--eZ-13" value="Extends" style="endArrow=block;endSize=16;endFill=0;html=1;rounded=0;exitX=0.5;exitY=0;exitDx=0;exitDy=0;entryX=0.5;entryY=1;entryDx=0;entryDy=0;" edge="1" parent="1" source="Pp5_mNrEerhu3dBY--eZ-12" target="Pp5_mNrEerhu3dBY--eZ-4">
          <mxGeometry width="160" relative="1" as="geometry">
            <mxPoint x="820" y="640" as="sourcePoint" />
            <mxPoint x="980" y="640" as="targetPoint" />
          </mxGeometry>
        </mxCell>
        <mxCell id="Pp5_mNrEerhu3dBY--eZ-14" value="&lt;p style=&quot;margin:0px;margin-top:4px;text-align:center;&quot;&gt;&lt;b&gt;MenuExecutableCommand&lt;/b&gt;&lt;/p&gt;&lt;hr size=&quot;1&quot;&gt;&lt;p style=&quot;margin:0px;margin-left:4px;&quot;&gt;+ command: () =&amp;gt; void&lt;/p&gt;&lt;hr size=&quot;1&quot;&gt;&lt;p style=&quot;margin:0px;margin-left:4px;&quot;&gt;# doExecute(): void&lt;/p&gt;" style="verticalAlign=top;align=left;overflow=fill;fontSize=12;fontFamily=Helvetica;html=1;whiteSpace=wrap;" vertex="1" parent="1">
          <mxGeometry x="455" y="710" width="160" height="90" as="geometry" />
        </mxCell>
        <mxCell id="Pp5_mNrEerhu3dBY--eZ-15" value="Extends" style="endArrow=block;endSize=16;endFill=0;html=1;rounded=0;exitX=0.5;exitY=0;exitDx=0;exitDy=0;" edge="1" parent="1" source="Pp5_mNrEerhu3dBY--eZ-14" target="Pp5_mNrEerhu3dBY--eZ-12">
          <mxGeometry width="160" relative="1" as="geometry">
            <mxPoint x="660" y="710" as="sourcePoint" />
            <mxPoint x="820" y="710" as="targetPoint" />
          </mxGeometry>
        </mxCell>
      </root>
    </mxGraphModel>
  </diagram>
  <diagram id="P4cynQZQ_Xfa4S9PdleE" name="DialogManager">
    <mxGraphModel dx="1434" dy="854" grid="1" gridSize="10" guides="1" tooltips="1" connect="1" arrows="1" fold="1" page="1" pageScale="1" pageWidth="1100" pageHeight="850" math="0" shadow="0">
      <root>
        <mxCell id="0" />
        <mxCell id="1" parent="0" />
        <mxCell id="H5_wwbb1W3VD3BMCHi80-1" value="&lt;p style=&quot;margin:0px;margin-top:4px;text-align:center;&quot;&gt;&lt;b&gt;DialogManager&amp;lt;T&amp;gt;&lt;/b&gt;&lt;/p&gt;&lt;hr size=&quot;1&quot;&gt;&lt;p style=&quot;margin:0px;margin-left:4px;&quot;&gt;- dialog: MatDialog&lt;/p&gt;&lt;p style=&quot;margin:0px;margin-left:4px;&quot;&gt;- componentType: ComponentType&amp;lt;T&amp;gt;&lt;/p&gt;&lt;p style=&quot;margin:0px;margin-left:4px;&quot;&gt;- afterCloseFunction: ClosedResultType&lt;/p&gt;&lt;p style=&quot;margin:0px;margin-left:4px;&quot;&gt;- config: MatDialogConfig&lt;/p&gt;&lt;hr size=&quot;1&quot;&gt;&lt;p style=&quot;margin:0px;margin-left:4px;&quot;&gt;+ &lt;u&gt;builder&lt;/u&gt;(dialog: MatDialog, componentType: ComponentType&amp;lt;T&amp;gt;:DialogManagerBuilder&lt;/p&gt;&lt;p style=&quot;margin:0px;margin-left:4px;&quot;&gt;+ open(snackbarMessage: string, dataSupplier:() =&amp;gt; object): void&lt;/p&gt;" style="verticalAlign=top;align=left;overflow=fill;fontSize=12;fontFamily=Helvetica;html=1;whiteSpace=wrap;" vertex="1" parent="1">
          <mxGeometry x="20" y="162.5" width="490" height="140" as="geometry" />
        </mxCell>
        <mxCell id="H5_wwbb1W3VD3BMCHi80-2" value="&lt;p style=&quot;margin:0px;margin-top:4px;text-align:center;&quot;&gt;&lt;b&gt;DialogManagerBuilder&amp;lt;T&amp;gt;&lt;/b&gt;&lt;/p&gt;&lt;hr size=&quot;1&quot;&gt;&lt;p style=&quot;margin:0px;margin-left:4px;&quot;&gt;- afterCloseFunction: ClosedResultType&lt;/p&gt;&lt;p style=&quot;margin:0px;margin-left:4px;&quot;&gt;- config: any&lt;/p&gt;&lt;p style=&quot;margin:0px;margin-left:4px;&quot;&gt;- dialog: MatDialog&lt;/p&gt;&lt;p style=&quot;margin:0px;margin-left:4px;&quot;&gt;- componentType: ComponentType&amp;lt;T&amp;gt;&lt;/p&gt;&lt;hr size=&quot;1&quot;&gt;&lt;p style=&quot;margin:0px;margin-left:4px;&quot;&gt;+ build(): DialogManager&amp;lt;T&amp;gt;&lt;/p&gt;&lt;p style=&quot;margin:0px;margin-left:4px;&quot;&gt;+ withAfterCloseFunction(afterCloseFunction: ClosedResultType): DialogManagerBuilder&lt;/p&gt;&lt;p style=&quot;margin:0px;margin-left:4px;&quot;&gt;+ withConfig(config: any): DialogManagerBuilder&lt;/p&gt;" style="verticalAlign=top;align=left;overflow=fill;fontSize=12;fontFamily=Helvetica;html=1;whiteSpace=wrap;" vertex="1" parent="1">
          <mxGeometry x="580" y="152.5" width="500" height="160" as="geometry" />
        </mxCell>
        <mxCell id="H5_wwbb1W3VD3BMCHi80-3" value="" style="endArrow=open;startArrow=circlePlus;endFill=0;startFill=0;endSize=8;html=1;rounded=0;exitX=1;exitY=0.5;exitDx=0;exitDy=0;entryX=0;entryY=0.5;entryDx=0;entryDy=0;" edge="1" parent="1" source="H5_wwbb1W3VD3BMCHi80-1" target="H5_wwbb1W3VD3BMCHi80-2">
          <mxGeometry width="160" relative="1" as="geometry">
            <mxPoint x="440" y="210" as="sourcePoint" />
            <mxPoint x="600" y="210" as="targetPoint" />
          </mxGeometry>
        </mxCell>
      </root>
    </mxGraphModel>
  </diagram>
  <diagram id="OdHALh0Mab7WkPyk-6aM" name="MenuDialogCommand">
    <mxGraphModel dx="1434" dy="854" grid="1" gridSize="10" guides="1" tooltips="1" connect="1" arrows="1" fold="1" page="1" pageScale="1" pageWidth="1100" pageHeight="850" math="0" shadow="0">
      <root>
        <mxCell id="0" />
        <mxCell id="1" parent="0" />
        <mxCell id="YbLQwD0Q9TkOjmNNI23e-1" value="&lt;p style=&quot;margin:0px;margin-top:4px;text-align:center;&quot;&gt;&lt;b&gt;MenuDialogCommand&amp;lt;T&amp;gt;&lt;/b&gt;&lt;/p&gt;&lt;hr size=&quot;1&quot;&gt;&lt;p style=&quot;margin:0px;margin-left:4px;&quot;&gt;+ title: string&lt;/p&gt;&lt;p style=&quot;margin:0px;margin-left:4px;&quot;&gt;+ group: string&lt;/p&gt;&lt;p style=&quot;margin:0px;margin-left:4px;&quot;&gt;+ isAdminOnly: boolean&lt;/p&gt;&lt;p style=&quot;margin:0px;margin-left:4px;&quot;&gt;- dataSupplier: ObjectSupplier&lt;/p&gt;&lt;p style=&quot;margin:0px;margin-left:4px;&quot;&gt;- snackbarMessage: string&lt;/p&gt;&lt;hr size=&quot;1&quot;&gt;&lt;p style=&quot;margin:0px;margin-left:4px;&quot;&gt;+ builder(title: string, group: string, dialogManager: DialogManager&amp;lt;T&amp;gt;): MenuDialogCommandBuilder&lt;/p&gt;&lt;p style=&quot;margin:0px;margin-left:4px;&quot;&gt;# doExecute(): MatDialogRef&amp;lt;any&amp;gt;&lt;/p&gt;" style="verticalAlign=top;align=left;overflow=fill;fontSize=12;fontFamily=Helvetica;html=1;whiteSpace=wrap;" vertex="1" parent="1">
          <mxGeometry x="40" y="230" width="550" height="160" as="geometry" />
        </mxCell>
        <mxCell id="YbLQwD0Q9TkOjmNNI23e-2" value="&lt;p style=&quot;margin:0px;margin-top:4px;text-align:center;&quot;&gt;&lt;b&gt;MenuDialogCommandBuilder&amp;lt;T&amp;gt;&lt;/b&gt;&lt;/p&gt;&lt;hr size=&quot;1&quot;&gt;&lt;p style=&quot;margin:0px;margin-left:4px;&quot;&gt;- isAdminOnly: boolean&lt;/p&gt;&lt;p style=&quot;margin:0px;margin-left:4px;&quot;&gt;- dataSupplier: ObjectSupplier&lt;/p&gt;&lt;p style=&quot;margin:0px;margin-left:4px;&quot;&gt;- snackbarMessage: string&lt;/p&gt;&lt;hr size=&quot;1&quot;&gt;&lt;p style=&quot;margin:0px;margin-left:4px;&quot;&gt;+ build(): MenuDialogCommand&amp;lt;T&amp;gt;&lt;/p&gt;&lt;p style=&quot;margin:0px;margin-left:4px;&quot;&gt;+ withAdminOnly(isAdminOnly: boolean): MenuDialogCommandBuilder&lt;/p&gt;&lt;p style=&quot;margin:0px;margin-left:4px;&quot;&gt;+ withDataSupplier(dataSupplier: ObjectSupplier): MenuDialogCommandBuilder&lt;/p&gt;&lt;p style=&quot;margin:0px;margin-left:4px;&quot;&gt;+ withSnackbarMessage(snackbarMessage: string): MenuDialogCommandBuilder&lt;/p&gt;" style="verticalAlign=top;align=left;overflow=fill;fontSize=12;fontFamily=Helvetica;html=1;whiteSpace=wrap;" vertex="1" parent="1">
          <mxGeometry x="630" y="190" width="450" height="160" as="geometry" />
        </mxCell>
        <mxCell id="YbLQwD0Q9TkOjmNNI23e-3" value="" style="endArrow=open;startArrow=circlePlus;endFill=0;startFill=0;endSize=8;html=1;rounded=0;exitX=1;exitY=0.25;exitDx=0;exitDy=0;entryX=0;entryY=0.5;entryDx=0;entryDy=0;" edge="1" parent="1" source="YbLQwD0Q9TkOjmNNI23e-1" target="YbLQwD0Q9TkOjmNNI23e-2">
          <mxGeometry width="160" relative="1" as="geometry">
            <mxPoint x="240" y="370" as="sourcePoint" />
            <mxPoint x="400" y="370" as="targetPoint" />
          </mxGeometry>
        </mxCell>
        <mxCell id="YbLQwD0Q9TkOjmNNI23e-5" value="&lt;p style=&quot;margin:0px;margin-top:4px;text-align:center;&quot;&gt;&lt;b&gt;DialogManager&amp;lt;T&amp;gt;&lt;/b&gt;&lt;/p&gt;&lt;hr size=&quot;1&quot;&gt;&lt;div style=&quot;height:2px;&quot;&gt;&lt;/div&gt;" style="verticalAlign=top;align=left;overflow=fill;fontSize=12;fontFamily=Helvetica;html=1;whiteSpace=wrap;" vertex="1" parent="1">
          <mxGeometry x="385" y="460" width="140" height="60" as="geometry" />
        </mxCell>
        <mxCell id="YbLQwD0Q9TkOjmNNI23e-6" value="dialogManager" style="endArrow=block;endFill=1;html=1;edgeStyle=orthogonalEdgeStyle;align=left;verticalAlign=top;rounded=0;exitX=0.5;exitY=1;exitDx=0;exitDy=0;entryX=0;entryY=0.5;entryDx=0;entryDy=0;" edge="1" parent="1" source="YbLQwD0Q9TkOjmNNI23e-1" target="YbLQwD0Q9TkOjmNNI23e-5">
          <mxGeometry x="-1" relative="1" as="geometry">
            <mxPoint x="430" y="530" as="sourcePoint" />
            <mxPoint x="590" y="530" as="targetPoint" />
            <Array as="points">
              <mxPoint x="315" y="490" />
            </Array>
          </mxGeometry>
        </mxCell>
        <mxCell id="YbLQwD0Q9TkOjmNNI23e-7" value="1" style="edgeLabel;resizable=0;html=1;align=left;verticalAlign=bottom;" connectable="0" vertex="1" parent="YbLQwD0Q9TkOjmNNI23e-6">
          <mxGeometry x="-1" relative="1" as="geometry" />
        </mxCell>
        <mxCell id="YbLQwD0Q9TkOjmNNI23e-8" value="&lt;p style=&quot;margin:0px;margin-top:4px;text-align:center;&quot;&gt;&lt;b&gt;MenuCommand&lt;/b&gt;&lt;/p&gt;&lt;hr size=&quot;1&quot;&gt;&lt;div style=&quot;height:2px;&quot;&gt;&lt;/div&gt;" style="verticalAlign=top;align=left;overflow=fill;fontSize=12;fontFamily=Helvetica;html=1;whiteSpace=wrap;" vertex="1" parent="1">
          <mxGeometry x="245" y="60" width="140" height="60" as="geometry" />
        </mxCell>
        <mxCell id="YbLQwD0Q9TkOjmNNI23e-9" value="Extends" style="endArrow=block;endSize=16;endFill=0;html=1;rounded=0;exitX=0.5;exitY=0;exitDx=0;exitDy=0;entryX=0.5;entryY=1;entryDx=0;entryDy=0;" edge="1" parent="1" source="YbLQwD0Q9TkOjmNNI23e-1" target="YbLQwD0Q9TkOjmNNI23e-8">
          <mxGeometry width="160" relative="1" as="geometry">
            <mxPoint x="390" y="120" as="sourcePoint" />
            <mxPoint x="550" y="120" as="targetPoint" />
          </mxGeometry>
        </mxCell>
        <mxCell id="YbLQwD0Q9TkOjmNNI23e-10" style="edgeStyle=orthogonalEdgeStyle;rounded=0;orthogonalLoop=1;jettySize=auto;html=1;exitX=0.5;exitY=1;exitDx=0;exitDy=0;" edge="1" parent="1" source="YbLQwD0Q9TkOjmNNI23e-1" target="YbLQwD0Q9TkOjmNNI23e-1">
          <mxGeometry relative="1" as="geometry" />
        </mxCell>
      </root>
    </mxGraphModel>
  </diagram>
  <diagram id="i5q0XyaZaU-x1VkFgi7q" name="DetailComponent">
    <mxGraphModel dx="1434" dy="854" grid="1" gridSize="10" guides="1" tooltips="1" connect="1" arrows="1" fold="1" page="1" pageScale="1" pageWidth="1100" pageHeight="850" math="0" shadow="0">
      <root>
        <mxCell id="0" />
        <mxCell id="1" parent="0" />
        <mxCell id="3jISfadw4hiQgOzQAxl3-1" value="&lt;p style=&quot;margin:0px;margin-top:4px;text-align:center;&quot;&gt;&lt;b&gt;&lt;i&gt;DetailComponent&lt;/i&gt;&lt;/b&gt;&lt;/p&gt;&lt;hr size=&quot;1&quot;&gt;&lt;p style=&quot;margin:0px;margin-left:4px;&quot;&gt;# route: ActivatedRoute&lt;/p&gt;&lt;hr size=&quot;1&quot;&gt;&lt;p style=&quot;margin:0px;margin-left:4px;&quot;&gt;# routeParams(): Observable&amp;lt;ParamMap&amp;gt;&lt;/p&gt;&lt;p style=&quot;margin:0px;margin-left:4px;&quot;&gt;# init(): void&lt;/p&gt;&lt;p style=&quot;margin:0px;margin-left:4px;&quot;&gt;# destroy(): void&lt;/p&gt;&lt;p style=&quot;margin:0px;margin-left:4px;&quot;&gt;# handleRoute(route: ActivatedRoute): void&lt;/p&gt;&lt;p style=&quot;margin:0px;margin-left:4px;&quot;&gt;# onUriChange(uri: URI) : void&lt;/p&gt;" style="verticalAlign=top;align=left;overflow=fill;fontSize=12;fontFamily=Helvetica;html=1;whiteSpace=wrap;" vertex="1" parent="1">
          <mxGeometry x="430" y="460" width="240" height="140" as="geometry" />
        </mxCell>
        <mxCell id="3jISfadw4hiQgOzQAxl3-2" value="&lt;p style=&quot;margin:0px;margin-top:4px;text-align:center;&quot;&gt;&lt;b&gt;&lt;i&gt;MenuRegisteringComponent&lt;/i&gt;&lt;/b&gt;&lt;/p&gt;&lt;hr size=&quot;1&quot;&gt;&lt;p style=&quot;margin:0px;margin-left:4px;&quot;&gt;# menuState: MenuStateService&lt;/p&gt;&lt;hr size=&quot;1&quot;&gt;&lt;p style=&quot;margin:0px;margin-left:4px;&quot;&gt;# menus(): MenuCommand[]&lt;/p&gt;&lt;p style=&quot;margin:0px;margin-left:4px;&quot;&gt;# init(): void&lt;/p&gt;&lt;p style=&quot;margin:0px;margin-left:4px;&quot;&gt;# destroy(): void&lt;/p&gt;&lt;p style=&quot;margin:0px;margin-left:4px;&quot;&gt;- registerMenus(menuState: MenuStateService): void&lt;/p&gt;" style="verticalAlign=top;align=left;overflow=fill;fontSize=12;fontFamily=Helvetica;html=1;whiteSpace=wrap;" vertex="1" parent="1">
          <mxGeometry x="400" y="270" width="300" height="130" as="geometry" />
        </mxCell>
        <mxCell id="3jISfadw4hiQgOzQAxl3-3" value="&lt;p style=&quot;margin:0px;margin-top:4px;text-align:center;&quot;&gt;&lt;b&gt;&lt;i&gt;BackButtonSupportingComponent&lt;/i&gt;&lt;/b&gt;&lt;/p&gt;&lt;hr size=&quot;1&quot;&gt;&lt;p style=&quot;margin:0px;margin-left:4px;&quot;&gt;&lt;br&gt;&lt;/p&gt;&lt;hr size=&quot;1&quot;&gt;&lt;p style=&quot;margin:0px;margin-left:4px;&quot;&gt;+ routeWithBackButton(path: string[]): void&lt;br&gt;&lt;/p&gt;&lt;p style=&quot;margin:0px;margin-left:4px;&quot;&gt;# init(): void&lt;/p&gt;&lt;p style=&quot;margin:0px;margin-left:4px;&quot;&gt;# destroy(): void&lt;/p&gt;&lt;p style=&quot;margin:0px;margin-left:4px;&quot;&gt;# doHandleBackButton(navService: NavService): void&lt;/p&gt;&lt;p style=&quot;margin:0px;margin-left:4px;&quot;&gt;- handleBackButton(navService: NavigationService): void&lt;/p&gt;&lt;p style=&quot;margin:0px;margin-left:4px;&quot;&gt;&lt;br&gt;&lt;/p&gt;&lt;p style=&quot;margin:0px;margin-left:4px;&quot;&gt;&lt;br&gt;&lt;/p&gt;" style="verticalAlign=top;align=left;overflow=fill;fontSize=12;fontFamily=Helvetica;html=1;whiteSpace=wrap;" vertex="1" parent="1">
          <mxGeometry x="390" y="70" width="320" height="140" as="geometry" />
        </mxCell>
        <mxCell id="3jISfadw4hiQgOzQAxl3-5" value="&lt;p style=&quot;margin:0px;margin-top:4px;text-align:center;&quot;&gt;&lt;b&gt;NavigationService&lt;/b&gt;&lt;/p&gt;&lt;hr size=&quot;1&quot;&gt;&lt;div style=&quot;height:2px;&quot;&gt;&lt;/div&gt;" style="verticalAlign=top;align=left;overflow=fill;fontSize=12;fontFamily=Helvetica;html=1;whiteSpace=wrap;" vertex="1" parent="1">
          <mxGeometry x="830" y="110" width="140" height="60" as="geometry" />
        </mxCell>
        <mxCell id="3jISfadw4hiQgOzQAxl3-6" value="1" style="endArrow=open;html=1;endSize=12;startArrow=diamondThin;startSize=14;startFill=1;edgeStyle=orthogonalEdgeStyle;align=left;verticalAlign=bottom;rounded=0;exitX=1;exitY=0.5;exitDx=0;exitDy=0;entryX=0;entryY=0.5;entryDx=0;entryDy=0;" edge="1" parent="1" source="3jISfadw4hiQgOzQAxl3-3" target="3jISfadw4hiQgOzQAxl3-5">
          <mxGeometry x="-1" y="3" relative="1" as="geometry">
            <mxPoint x="800" y="230" as="sourcePoint" />
            <mxPoint x="960" y="230" as="targetPoint" />
          </mxGeometry>
        </mxCell>
        <mxCell id="3jISfadw4hiQgOzQAxl3-7" value="Extends" style="endArrow=block;endSize=16;endFill=0;html=1;rounded=0;exitX=0.5;exitY=0;exitDx=0;exitDy=0;entryX=0.5;entryY=1;entryDx=0;entryDy=0;" edge="1" parent="1" source="3jISfadw4hiQgOzQAxl3-2" target="3jISfadw4hiQgOzQAxl3-3">
          <mxGeometry width="160" relative="1" as="geometry">
            <mxPoint x="860" y="290" as="sourcePoint" />
            <mxPoint x="1020" y="290" as="targetPoint" />
          </mxGeometry>
        </mxCell>
        <mxCell id="3jISfadw4hiQgOzQAxl3-8" value="Extends" style="endArrow=block;endSize=16;endFill=0;html=1;rounded=0;exitX=0.5;exitY=0;exitDx=0;exitDy=0;entryX=0.5;entryY=1;entryDx=0;entryDy=0;" edge="1" parent="1" source="3jISfadw4hiQgOzQAxl3-1" target="3jISfadw4hiQgOzQAxl3-2">
          <mxGeometry width="160" relative="1" as="geometry">
            <mxPoint x="730" y="450" as="sourcePoint" />
            <mxPoint x="890" y="450" as="targetPoint" />
          </mxGeometry>
        </mxCell>
      </root>
    </mxGraphModel>
  </diagram>
</mxfile>
